<svg xmlns="http://www.w3.org/2000/svg" viewBox="0 0 473.65 99.64"><defs><style>.a{fill:#fff;}</style></defs><title>アセット 2</title><path class="a" d="M63.32,98.26a3.65,3.65,0,0,1-4.14,1.17c-4.25-1.22-7-4.2-9.23-7.76-3.72-6-5.17-12.68-6.07-19.51a94.27,94.27,0,0,1,3-40.35c.54-1.75,1.23-3.44,1.91-5.33-9.18.73-18.3,1.12-27.19,3.37C16.4,31.16,11.2,32.42,6.05,33.9A5.46,5.46,0,0,1,.92,32.67a2.29,2.29,0,0,1,1-4.08c7-1.81,13.88-4.14,21-5.06C34.64,22,46.51,21.41,58.34,20.41c11.42-1,22.83-2,34.26-2.86a39.58,39.58,0,0,1,7.59.12c1.18.14,2.25,1.14,3.38,1.75l-.19,1.08C87.49,24,71.29,25.11,55.54,26c-.51,1.36-.91,2.42-1.3,3.49-.5,1.35-1.09,2.68-1.45,4.07a97.89,97.89,0,0,0-.67,49.29c1.22,4.91,3,9.61,7.09,13A31.11,31.11,0,0,0,63.32,98.26Z"/><path class="a" d="M132.28,58.43c1.59-.74,2.46-.27,2.56,1.5.05,1,.44,2,.16,2.84-1.36,4.09,1,6.78,3.78,8.75,3,2.1,6.47,3.42,10.21,5.32-.62-3.61-1.35-6.52-1.57-9.47-.27-3.61-.2-7.26-.12-10.89,0-1.82,1.14-2.33,2.8-1.56a5.21,5.21,0,0,1,3.28,5.4c-.11,3.4,0,6.8,0,10.2l.73.2c.4-.63.82-1.26,1.21-1.9C157,66,158.64,63,160.58,60.26c2.14-3,5.35-4.23,7.56-2.82a17.69,17.69,0,0,1,4.7,4.41c1.72,2.37,2.83,5.18,4.49,7.6a11.07,11.07,0,0,0,7.48,4.64,10.07,10.07,0,0,1,2.76.73c.5.25,1.15,1.15,1,1.5a2.34,2.34,0,0,1-1.54,1.37c-6.87.69-11.66-2.68-15.26-8.14-1.46-2.22-2.73-4.57-4.31-7.25-1.21,1.36-2.54,2.35-3.2,3.68-2.51,5.09-4.83,10.28-7.17,15.45-.58,1.28-.66,2.89-2.58,3A3.47,3.47,0,0,1,150.9,82c-.65-1.64-1.77-2.14-3.37-2.42-5.13-.9-10-2.57-14-6a5.15,5.15,0,0,0-1-.54,90.66,90.66,0,0,1-5,7.59,18.57,18.57,0,0,1-4.93,4.28c-6.83,4-14.09,0-14.65-7.88a18.4,18.4,0,0,1,2.49-10.26c2.77-5.06,5.71-9.9,10.62-13.4C124.79,50.7,132.08,53.87,132.28,58.43ZM113.67,77.6c.52,1.06.81,2.78,1.71,3.21s2.55-.22,3.6-.86c3.58-2.17,5.66-5.6,7.54-9.27,2.05-4,.56-8.26,1.29-12.33.05-.29-1.11-1.15-1.65-1.1a3.93,3.93,0,0,0-2.07,1.21,38.38,38.38,0,0,0-8.77,13.27A54.22,54.22,0,0,0,113.67,77.6Z"/><path class="a" d="M197.69,50.58c3.17-1.71,6.21-3.41,9.29-5,5.16-2.69,10.15-5.77,16-6.82a8.57,8.57,0,0,1,9.57,4.65A7.17,7.17,0,0,1,232.7,46c-.82-.19-1.86-.13-2.42-.62a6.17,6.17,0,0,0-7-.89c-5.68,2.56-11.27,5.32-16.85,8.11-2,1-3.75,2.28-5.61,3.44-1,.65-1.45,1.62-.69,2.6a15.93,15.93,0,0,0,3.59,3.77c4.6,2.94,9.87,4.06,15.17,4.88,4,.62,8,.85,12,1.62,1.38.27,2.56,1.63,4,2.59-1.92,2.06-4,2.12-5.9,2-4.44-.26-8.88-.68-13.27-1.32-5.94-.87-11.71-2.37-16.74-5.89a5.88,5.88,0,0,0-1.3-.41c.54,4.1,1,8,1.58,11.79.38,2.43,1,4.81,1.46,7.23a1.73,1.73,0,0,1-2.47,2.17c-2.63-.91-3.45-3.2-3.81-5.64-1.91-13-3.45-26.11-2.36-39.35.77-9.43.74-18.93,3.23-28.16a16.27,16.27,0,0,1,1.08-3.31c.4-.76,1.48-2,1.78-1.83a13.2,13.2,0,0,1,3.66,2.41c.23.2-.34,1.31-.57,2a5.84,5.84,0,0,0-.45,1.14q-1.72,17.8-3.4,35.61C197.42,50.06,197.48,50.12,197.69,50.58Z"/><path class="a" d="M79.59,64c2.14-3.22,3.74-6,5.72-8.48a10.59,10.59,0,0,1,4.18-3.18c4.17-1.65,9.86,1.51,10.9,6s1.72,9.3,2.68,13.93a56.72,56.72,0,0,0,2,7.53,22.43,22.43,0,0,0,2.39,4,4.52,4.52,0,0,1-6.94-2,68.56,68.56,0,0,1-4.06-11.13c-1-3.48-1.42-7.12-2.14-10.67a33.13,33.13,0,0,0-1-3.18A30.9,30.9,0,0,0,90,59.62c-4.1,4.77-5.74,10.51-6.32,16.64-.34,3.61-.72,7.23-1.09,10.84-.16,1.52-.62,2.9-2.29,3.29a3,3,0,0,1-3.66-2A20.24,20.24,0,0,1,75.11,83C73.36,67.51,72.9,52,75.5,36.62a64.09,64.09,0,0,1,1.95-7.13c.51-1.75,1.67-2.24,3.34-1.58,2.52,1,3.75,2.58,3,4.16C81,37.46,81,43.35,80.47,49.11,80,53.85,79.89,58.61,79.59,64Z"/><path class="a" d="M303.64,68.5c-6.32-4.68-8.18-11-7.79-18.14.15-2.74,1.18-5.45,1.93-8.14a2,2,0,0,1,1.32-1.07c2-.36,4.92,3.32,4.28,5.25a22.49,22.49,0,0,0,.56,16.08c.35.84,1.26,1.91,2,2s1.83-.81,2.32-1.57c4.42-6.78,8.73-13.63,13.11-20.43a43.89,43.89,0,0,1,3-3.91,1.84,1.84,0,0,1,3-.1c1,1,2.78,1.89,1.74,3.67-7.91,13.55-15.07,27.64-26.78,38.52a44.76,44.76,0,0,1-7.48,5.72c-4,2.39-8.26,1.73-10.8-1.32a7.57,7.57,0,0,1-1.38-2.7,5.94,5.94,0,0,1,.2-2.13c.84.14,1.95,0,2.46.47,1.81,1.69,3.47,1.61,5.46.34C295.94,77.76,299.66,73.17,303.64,68.5Z"/><path class="a" d="M393.56,50.73c-2.66,2.16-5,4.53-7.71,6.1a23.45,23.45,0,0,1-8.24,2.78c-3.17.44-5.7-1.11-7.47-4-3.61-6-2-14.35,1.67-19.21,1-1.32,2.18-.6,3.11,0a4.65,4.65,0,0,1,1.47,6.14,28.37,28.37,0,0,0-1.38,3c-1,2.5-1.32,5,.61,7.69a13.31,13.31,0,0,0,2.78-.52C384.74,50.15,389.08,45.34,393,40a5.43,5.43,0,0,0,.59-1.94,23.8,23.8,0,0,1,6.36-12c1.24-1.21,2.49-1.94,4.19-1s3,3.33,2.55,4.93a27.81,27.81,0,0,1-1.8,4.35,34.13,34.13,0,0,1-2.54,4.23c-4.2,5.93-3.35,11.91-.37,18a10.76,10.76,0,0,1,.55,2.67,10.28,10.28,0,0,1-2.8-.4c-3.12-1.39-4.54-4.21-5.73-7.18Z"/><path class="a" d="M339.48,40.27c-.31-3.06.43-4.22,3.54-5.38,4.28-1.59,8.66-2,12.75.24,5.34,3,7.54,7,5.4,13.59-2,6.24-5.33,11.39-11.52,14.27-6.46,3-12.59,1.26-15.67-5.11a11.76,11.76,0,0,1-.47-7.37c.73-3,2.45-5.75,3.9-8.54C337.78,41.26,338.73,40.86,339.48,40.27Zm4.81,5.38a5.73,5.73,0,0,0-2,1.16,11.75,11.75,0,0,0-2.77,8.77A2.69,2.69,0,0,0,343.31,58a21.89,21.89,0,0,0,4.34-1.78c4.43-2.64,6.7-6.9,8.19-11.62,1.06-3.35.55-4.21-2.84-4.79a17.33,17.33,0,0,0-4.26-.12c-1.81.14-3.6.75-4.39,2.5C343.94,43.08,344.28,44.34,344.28,45.65Z"/><path class="a" d="M445.36,41.5a3.39,3.39,0,0,1-2.84-4.08,53.33,53.33,0,0,1,9.22-20.94C455.82,11,460.15,5.8,465.93,2A20.44,20.44,0,0,1,467.69.95c2.71-1.41,3.75-1.27,4.92.62,1.63,2.66,1.39,4.29-1,6a68.4,68.4,0,0,0-18.23,19.1c-2.39,3.79-3.92,8.13-5.93,12.17A16.37,16.37,0,0,1,445.36,41.5Z"/><path class="a" d="M437.49,61.08c-3.47,0-5.88-1.42-6.27-3.83a3.58,3.58,0,0,1,.59-2.79,3.22,3.22,0,0,1,2.77-.17,6.69,6.69,0,0,1,4.27,4.84C439.17,60.51,438.41,61,437.49,61.08Z"/></svg>