<svg xmlns="http://www.w3.org/2000/svg" viewBox="0 0 46.12 32.8"><defs><style>.a{fill:#898989;}.b{fill:#efefef;}.c{fill:#fff;}</style></defs><title>shootingButtonDisable--horse</title><rect class="a" y="1.79" width="46.06" height="31.02" rx="4.58" ry="4.58"/><rect class="b" x="0.05" width="46.06" height="31.02" rx="4.58" ry="4.58"/><path class="c" d="M259.1,242.23l2.33-.88-1.94-5.15-6.68,2.42.3.64s.51,1,1.13,2.51l.76,2h0a19.8,19.8,0,0,1,1.36,7.17,6.43,6.43,0,0,1-12.85,0,19.83,19.83,0,0,1,1.36-7.17h0l.76-2c.62-1.51,1.13-2.51,1.13-2.51l.3-.64-6.68-2.42-1.94,5.15,2.34.88c-.28.54-6.17,11.91,1.25,18.46a11.91,11.91,0,0,0,15.82,0c7.42-6.55,1.53-17.93,1.25-18.46m-17.92,11.91A1.12,1.12,0,1,1,242.3,253a1.12,1.12,0,0,1-1.12,1.12m.55-6.47a1.12,1.12,0,1,1,1.12-1.12,1.12,1.12,0,0,1-1.12,1.12m2.56,12a1.12,1.12,0,1,1,1.12-1.12,1.12,1.12,0,0,1-1.12,1.12m11.32,0a1.12,1.12,0,1,1,1.12-1.12,1.12,1.12,0,0,1-1.12,1.12M257,246.55a1.12,1.12,0,1,1,1.12,1.12,1.12,1.12,0,0,1-1.12-1.12m1.67,7.59a1.12,1.12,0,1,1,1.12-1.12,1.12,1.12,0,0,1-1.12,1.12" transform="translate(-226.91 -234.45)"/></svg>