<svg xmlns="http://www.w3.org/2000/svg" viewBox="0 0 202.1 238.83"><title>star-mask--horse</title><path d="M334.8,110.16h.48a10.33,10.33,0,0,0,.27,1l15.92,42.26c.17.44.31.89.5,1.45l-20.16,7.61c.19.42.33.74.48,1.06,10.68,22,17.88,44.93,20.31,69.29a127.76,127.76,0,0,1-1,34.18c-4,23.45-14.95,42.91-33.36,58-18,14.76-38.74,22.58-61.9,23.8a96.35,96.35,0,0,1-45.16-8.63c-35.81-16.18-56-43.74-59.54-83.11q-.23-2.56-.46-5.11,0-5.4,0-10.8c.07-.43.16-.85.21-1.28.68-6.27,1-12.59,2.07-18.8a206.66,206.66,0,0,1,18.72-57.51c.17-.34.31-.69.49-1.11l-20.15-7.6c.17-.51.27-.89.41-1.26q6.62-17.59,13.25-35.17c1-2.76,2-5.54,3-8.31h.48a7.39,7.39,0,0,0,.92.48L217,127.46l10.29,3.74c-.2.45-.34.82-.51,1.17a369.75,369.75,0,0,0-18.66,44.1c-6,16.83-10.64,34-11.68,52a59.32,59.32,0,0,0,1,16.83c4.15,18,14.6,31.31,30.67,40.15,10.94,6,22.65,7.92,34.9,5.05,15.08-3.53,26.65-12.22,35.36-24.83a53.7,53.7,0,0,0,9.67-27,99.88,99.88,0,0,0-1.35-23.42,214.1,214.1,0,0,0-10.9-40.41c-2.12-5.68-4.09-11.44-6.48-17-3.66-8.51-7.63-16.88-11.47-25.31-.19-.42-.37-.84-.57-1.3l1.26-.46,55.28-20.07A9.23,9.23,0,0,0,334.8,110.16Zm-33.4,184a9.77,9.77,0,1,0,9.8,9.74A9.81,9.81,0,0,0,301.4,294.11Zm-110.76-94a9.76,9.76,0,1,0-9.78,9.73A9.72,9.72,0,0,0,190.64,200.07Zm132.93-9.78a9.75,9.75,0,1,0,9.8,9.71A9.71,9.71,0,0,0,323.58,190.29ZM176.18,266a9.76,9.76,0,1,0-9.83-9.7A9.75,9.75,0,0,0,176.18,266Zm17.16,37.73a9.77,9.77,0,1,0,9.91-9.61A9.78,9.78,0,0,0,193.34,303.72Zm135-37.73a9.76,9.76,0,1,0-9.69-9.8A9.76,9.76,0,0,0,328.31,266Z" transform="translate(-151.2 -110.16)"/></svg>